
        <svg xmlns="http://www.w3.org/2000/svg" xmlns:xlink="http://www.w3.org/1999/xlink" version="1.1" width="3171.4285714285716" 
        height="1564.5153207122944" viewBox="0 0 3171.4285714285716 1564.5153207122944">
			
			<g transform="scale(8.571428571428571) translate(10, 10)">
				<defs id="SvgjsDefs1001"><linearGradient id="SvgjsLinearGradient1015"><stop id="SvgjsStop1016" stop-color="#905e26" offset="0"></stop><stop id="SvgjsStop1017" stop-color="#f5ec9b" offset="0.5"></stop><stop id="SvgjsStop1018" stop-color="#905e26" offset="1"></stop></linearGradient><linearGradient id="SvgjsLinearGradient1019"><stop id="SvgjsStop1020" stop-color="#905e26" offset="0"></stop><stop id="SvgjsStop1021" stop-color="#f5ec9b" offset="0.5"></stop><stop id="SvgjsStop1022" stop-color="#905e26" offset="1"></stop></linearGradient><linearGradient id="SvgjsLinearGradient1023"><stop id="SvgjsStop1024" stop-color="#905e26" offset="0"></stop><stop id="SvgjsStop1025" stop-color="#f5ec9b" offset="0.5"></stop><stop id="SvgjsStop1026" stop-color="#905e26" offset="1"></stop></linearGradient><linearGradient id="SvgjsLinearGradient1027"><stop id="SvgjsStop1028" stop-color="#905e26" offset="0"></stop><stop id="SvgjsStop1029" stop-color="#f5ec9b" offset="0.5"></stop><stop id="SvgjsStop1030" stop-color="#905e26" offset="1"></stop></linearGradient></defs><g id="SvgjsG1007" featureKey="symbolContainer" transform="matrix(0.525084640996058,0,0,0.525084640996058,121,0)" fill="url(#SvgjsLinearGradient1015)"><path xmlns="http://www.w3.org/2000/svg" d="M102.174 199.588c53.8 0 97.413-43.613 97.413-97.413S155.974 4.762 102.174 4.762 4.761 48.375 4.761 102.175s43.614 97.413 97.413 97.413zm0-189.826c50.957 0 92.413 41.457 92.413 92.413s-41.456 92.413-92.413 92.413c-50.957 0-92.413-41.457-92.413-92.413S51.218 9.762 102.174 9.762z"></path><path xmlns="http://www.w3.org/2000/svg" d="M102.174 191.585c49.38 0 89.41-40.03 89.41-89.41s-40.03-89.41-89.41-89.41c-49.38 0-89.41 40.03-89.41 89.41s40.03 89.41 89.41 89.41zm0-176.82c48.198 0 87.41 39.212 87.41 87.41s-39.212 87.41-87.41 87.41c-48.198 0-87.41-39.212-87.41-87.41s39.212-87.41 87.41-87.41z"></path><path xmlns="http://www.w3.org/2000/svg" d="M102.174 204.35c56.339 0 102.174-45.835 102.174-102.175S158.513 0 102.174 0C45.835 0 0 45.835 0 102.175S45.835 204.35 102.174 204.35zm0-202.35c55.236 0 100.174 44.938 100.174 100.175S157.411 202.35 102.174 202.35C46.938 202.35 2 157.411 2 102.175S46.938 2 102.174 2z"></path></g><g id="SvgjsG1008" featureKey="symbolFeature-0" transform="matrix(0.826602643665537,0,0,0.826602643665537,131.71721022941134,4.619086594366774)" fill="url(#SvgjsLinearGradient1019)"><g xmlns="http://www.w3.org/2000/svg"><path d="m85.79 28.68-5.14-2.97a.41.41 0 0 1-.13-.59l3.51-4.96a.8.79-47 0 1 1.27-.05q2.84 3.45 1.19 8.3a.49.48 23.6 0 1-.7.27" fill="url(#SvgjsLinearGradient1019)"></path><path d="m76.98 27.29.61-.51a1.41 1.4-58.1 0 1 1.22-.29q4.64 1.08 6.37 2.84 4.13 4.23 8.69 6.11a.25.24-31 0 1-.12.47q-5.03-.45-8.39-1.93a.31.31 0 0 0-.42.38q.21.67 1 1.4a.45.45 0 0 1-.02.68l-.24.2a.21.2-46.1 0 1-.26.01l-9.53-6.73a.66.65 37.4 0 0-.87.11q-1.51 1.79-4.24 3.05a.23.23 0 0 0-.11.31v.01a.14.13-21.3 0 0 .17.07q2.89-1.02 4.21-2.15a.69.69 0 0 1 .82-.05c4.7 3.06 9.23 7.05 9.55 12.93a5.01 4.75 35 0 0 .28 1.37q3.44 9.44 10.3 17.91c1.14 1.41.95 3.82-.46 5.14q-1.3 1.21-1.54 2.22c-.63 2.6-2.66 3.13-4.98 2.87a1.36 1.35 73.1 0 1-.89-.48q-1.85-2.21-1.93-5.29a.13.12-87.1 0 0-.09-.11l-.43-.12a.2.19 6.7 0 0-.25.19q.15 3.99 1.9 5.59a1.41 1.41 0 0 1-1.54 2.33q-5.18-2.35-2.76-7.48a.49.48-69.8 0 0-.31-.68l-.38-.11a.6.56-10.2 0 1-.28-.18l-6.68-7.99a.94.93-23.4 0 0-.85-.33q-9.29 1.33-12.41-6.58c-.79-2.03-.52-4.42-.22-6.96a.11.11 0 0 0-.21-.06q-3.7 7.25 1.12 12.49a.8.79 40 0 1 .09.96q-4.45 7.19-3.75 16.53c.34 4.46 3.25 9.39 3.88 13.98a.81.76 50.2 0 1-.02.35l-2.36 8.44a.27.27 0 0 1-.39.16L28.44 79.99a.86.84-72.7 0 1-.42-.82c.97-10.84 5.72-22.93 12.36-32.19 6.61-9.23 17.13-15.41 27.91-18.76a1.98 1.97-87.7 0 0 1.24-1.15q1.58-3.91 6.14-6.66a.57.57 0 0 1 .86.44q.27 3.37-.15 6.11a.37.36-15.7 0 0 .6.33m-8.23 5.76q-.14.22-.14.86a.52.52 0 0 0 .61.51q.58-.1.66-.7a.74.6 69.8 0 0-1.13-.67m12.87 13.98q-1.23-1.37-1.53-4.02a1.39 1.38-3.2 0 0-1.38-1.22h-5.98a.36.35-13 0 0-.32.51q.39.81 1 1.02.21.07 1.01-.33.73-.37 1.29-.39a.36.36 0 0 1 .37.36v.34a.59.58-5.4 0 1-.48.57q-1.5.27-.88 1.33 1.84 3.17 4.61 2.13a1.65 1.64 45.2 0 1 1.2.01q.82.34.85.33a.39.39 0 0 0 .24-.64m11.71 21.04q1.29-2.36.93-3.29-1.01-2.57-3.36-2.03a1.27 1.26 73.6 0 0-.9 1.66q1.06 3 2.47 3.88a.62.61 30.4 0 0 .86-.22" fill="url(#SvgjsLinearGradient1019)"></path><path d="M33.15 42.45a.24.24 0 0 0 .1-.28l-.01-.01a.19.19 0 0 0-.27-.11q-9.04 4.45-15.87 4.77a.31.31 0 0 1-.22-.54c.77-.69 2.85-1.28 4.4-2.18q1.33-.78 10.66-7.66c9.4-6.92 20.78-12.03 32.8-11.65q1.67.05 3.14.47a.54.54 0 0 1 .03 1.03Q63.32 27.9 63 28.01q-18.92 6.83-28.27 25.22-2.72 5.35-5.88 13.07c-3.26 7.96-13.75 8.34-20.91 9.21a.3.3 0 0 1-.14-.58q7.88-3.1 13.6-9.08a.24.24 0 0 0-.27-.39l-12.2 5.27a.29.29 0 0 1-.35-.43q.64-.93 8.54-12.38 1.89-2.73 7.75-6a.27.26-28.6 0 0 .11-.35v-.01a.22.21 66 0 0-.27-.11q-8.28 3.17-16.77 4.5a.2.19 29 0 1-.11-.37q12.63-5.07 25.32-13.13M78.55 44.39q-.26-.06-.54-.17a.87.81 51.2 0 1 .12-1.62q.79-.09 1.14.74.87 2.08.16 2.75-1.62 1.51-3.38-1.02a.59.59 0 0 1 .81-.83q.08.05.51.58a.81.79 74.7 0 0 .48.28q.67.1.81.01a.39.39 0 0 0-.11-.72M92.38 67.09l-1.23-2.84a.28.28 0 0 1 .26-.39q.28.01.29 0a1.17 1.17 0 0 1 1.66 1.16l-.18 1.94a.42.42 0 0 1-.8.13" fill="url(#SvgjsLinearGradient1019)"></path></g></g><g id="SvgjsG1009" featureKey="nameFeature-0" transform="matrix(0.6919552181506958,0,0,0.6919552181506958,-0.8213332991857121,119.13938961927198)" fill="url(#SvgjsLinearGradient1023)"><path d="M7.56 40 c-0.36 0 -0.6 -1.28 -0.28 -1.32 c2.76 -0.36 4.6 -0.92 4.6 -3.08 l0 -19.72 c0 -1 -0.36 -1.32 -1.32 -1.32 l-1.08 0 c-3.8 0 -5.92 0.88 -6.72 2.6 c-0.36 0.8 -1.72 0.68 -1.56 0 c0.36 -1.44 0.68 -2.68 0.92 -4.8 c0.08 -0.76 0.52 -0.72 1.24 -0.64 c1.84 0.2 3.52 0.28 11.12 0.28 s10.28 -0.08 12.2 -0.28 c0.72 -0.08 1.4 -0.12 1.16 0.64 c-0.6 1.88 -1 3.36 -1.24 4.8 c-0.12 0.68 -1.2 0.72 -1.36 0 c-0.4 -1.68 -2.16 -2.6 -5.6 -2.6 l-1.24 0 c-0.96 0 -1.56 0.32 -1.56 1.32 l0 19.72 c0 2.16 1.84 2.72 4.6 3.08 c0.32 0.04 0.08 1.32 -0.28 1.32 l-13.6 0 z M60.92 38.64 c0.32 0.04 0.08 1.36 -0.24 1.36 l-10.96 0 c-0.32 0 -0.56 -1.32 -0.24 -1.36 c2.04 -0.28 3.32 -1.08 3.32 -3.6 l0 -6.88 c-0.2 -0.68 -1.04 -0.68 -1.8 -0.68 l-10.24 0 c-0.76 0 -1.6 0 -1.8 0.68 l0 6.88 c0 2.8 1.6 3.36 3.32 3.6 c0.32 0.04 0.08 1.36 -0.24 1.36 l-10.96 0 c-0.32 0 -0.56 -1.32 -0.24 -1.36 c2.04 -0.28 3.32 -1.08 3.32 -3.6 l0 -18.08 c0 -2.52 -1.28 -3.32 -3.32 -3.6 c-0.32 -0.04 -0.08 -1.36 0.24 -1.36 l10.96 0 c0.32 0 0.56 1.32 0.24 1.36 c-1.72 0.24 -3.32 0.8 -3.32 3.6 l0 7.32 c0.2 0.68 1.04 0.68 1.8 0.68 l10.24 0 c0.76 0 1.6 0 1.8 -0.68 l0 -7.32 c0 -2.52 -1.28 -3.32 -3.32 -3.6 c-0.32 -0.04 -0.08 -1.36 0.24 -1.36 l10.96 0 c0.32 0 0.56 1.32 0.24 1.36 c-1.72 0.24 -3.32 0.8 -3.32 3.6 l0 18.08 c0 2.8 1.6 3.36 3.32 3.6 z M64.08 40.08 c-0.4 0.04 -0.56 -1.36 -0.24 -1.44 c2.32 -0.6 4.12 -0.96 4.12 -3.92 l0 -17.76 c0 -2.56 -1.64 -3.24 -3.36 -3.68 c-0.32 -0.08 -0.12 -1.4 0.2 -1.36 c2.92 0.32 7.96 0.24 10.4 0.24 c3.64 0 6.28 -0.16 9.56 -0.24 c0.96 0 0.96 0.64 0.76 1.56 l-0.96 3.8 c-0.12 0.56 -1.12 0.56 -1.28 0 c-0.6 -1.96 -1.8 -3.08 -6.8 -3.08 c-2.8 0 -3.72 0.72 -3.72 2.8 l0 6.52 c0 1.04 0.52 1.24 1.32 1.24 l0.88 0 c3.24 0 6.04 -0.32 7.68 -1.8 c0.4 -0.36 1.28 -0.28 0.92 0.52 l-2.28 5.04 c-0.32 0.72 -0.92 0.64 -1.36 0.04 c-0.92 -1.28 -2.96 -1.8 -5.28 -1.8 l-0.56 0 c-0.8 0 -1.32 0.2 -1.32 1.24 l0 6.72 c0 2.28 0.96 3.12 4.28 3.12 c6.04 0 8.44 -2.76 9.4 -4.28 c0.28 -0.44 1.36 -0.24 1.36 0.44 c0 2.04 -1.72 6.08 -4.24 6.08 c-2.24 -0.12 -4.44 -0.24 -7.8 -0.24 c-3.68 0 -8.04 -0.12 -11.68 0.24 z M129.04 38.64 c0.32 0.04 0.08 1.36 -0.24 1.36 l-10.96 0 c-0.32 0 -0.56 -1.32 -0.24 -1.36 c2.04 -0.28 3.32 -1.08 3.32 -3.6 l0 -6.88 c-0.2 -0.68 -1.04 -0.68 -1.8 -0.68 l-10.24 0 c-0.76 0 -1.6 0 -1.8 0.68 l0 6.88 c0 2.8 1.6 3.36 3.32 3.6 c0.32 0.04 0.08 1.36 -0.24 1.36 l-10.96 0 c-0.32 0 -0.56 -1.32 -0.24 -1.36 c2.04 -0.28 3.32 -1.08 3.32 -3.6 l0 -18.08 c0 -2.52 -1.28 -3.32 -3.32 -3.6 c-0.32 -0.04 -0.08 -1.36 0.24 -1.36 l10.96 0 c0.32 0 0.56 1.32 0.24 1.36 c-1.72 0.24 -3.32 0.8 -3.32 3.6 l0 7.32 c0.2 0.68 1.04 0.68 1.8 0.68 l10.24 0 c0.76 0 1.6 0 1.8 -0.68 l0 -7.32 c0 -2.52 -1.28 -3.32 -3.32 -3.6 c-0.32 -0.04 -0.08 -1.36 0.24 -1.36 l10.96 0 c0.32 0 0.56 1.32 0.24 1.36 c-1.72 0.24 -3.32 0.8 -3.32 3.6 l0 18.08 c0 2.8 1.6 3.36 3.32 3.6 z M147.44 40.64 c-8.32 0 -14.44 -6.16 -14.44 -14.48 c0 -8.08 5.76 -14.8 14.52 -14.8 c8.36 0 14.44 6.12 14.44 14.44 c0 8.12 -5.72 14.84 -14.52 14.84 z M149 37.92 c3.52 0 8.2 -2.32 8.2 -9.88 c0 -8.08 -5.48 -13.96 -11.24 -13.96 c-3.52 0 -8.16 2.32 -8.16 9.84 c0 8.16 5.48 14 11.2 14 z M195.16 39 c0.32 0 0.24 1.08 0 1.16 c-2.52 0.84 -6 0.72 -8.4 -2.36 l-6.16 -7.92 c-1.72 -2.24 -3.76 -2.56 -6.56 -2.6 l0 7.76 c0 2.8 1.92 3.28 4.48 3.6 c0.28 0.04 0.08 1.36 -0.24 1.36 l-12.12 0 c-0.32 0 -0.56 -1.32 -0.24 -1.36 c2.04 -0.28 3.32 -1.08 3.32 -3.6 l0 -17.84 c0 -2.64 -1.4 -3.4 -3.32 -3.92 c-0.32 -0.08 -0.12 -1.4 0.24 -1.36 c1.56 0.2 3.32 0.24 4.6 0.24 c2.96 0 5.72 -0.24 7.64 -0.24 c6.04 0 10.08 2.48 10.08 7.4 c0 4.64 -3.76 6.92 -7.12 7.12 l0 0.2 c1.6 0 2.76 0.68 4.52 2.88 l5.96 7.48 c1.24 1.56 2.44 2 3.32 2 z M175.2 25.44 c5.96 0 8.24 -1.04 8.24 -5.04 c0 -4.28 -2.72 -6.4 -6.28 -6.4 c-2.36 0 -3.12 0.96 -3.12 3.2 l0 8.24 l1.16 0 z M206.2 40.64 c-3.28 0 -8.28 -1.44 -7.8 -3.2 l0.4 -1.48 c1.12 -4.2 2.44 1.96 9.04 1.96 c3.36 0 5 -1.64 5 -3.96 c0 -1.88 -1.2 -2.68 -4.04 -4.44 l-3.88 -2.44 c-4.32 -2.72 -6.08 -4.4 -6.08 -7.4 c0 -4.92 4.8 -8.32 9.76 -8.32 c3.04 0 6.92 1.32 6.48 2.68 l-0.48 1.52 c-1.24 3.88 -2.24 -1.48 -7.72 -1.48 c-2.84 0 -4.32 1.44 -4.32 3.56 c0 1.8 1.08 2.8 3.76 4.44 l4.2 2.6 c4.24 2.64 5.96 4.44 5.96 7.32 c0 5 -4.92 8.64 -10.28 8.64 z M219.88 40.08 c-0.4 0.04 -0.56 -1.36 -0.24 -1.44 c2.32 -0.6 4.12 -0.96 4.12 -3.92 l0 -17.76 c0 -2.56 -1.64 -3.24 -3.36 -3.68 c-0.32 -0.08 -0.12 -1.4 0.2 -1.36 c2.92 0.32 7.96 0.24 10.4 0.24 c3.64 0 6.28 -0.16 9.56 -0.24 c0.96 0 0.96 0.64 0.76 1.56 l-0.96 3.8 c-0.12 0.56 -1.12 0.56 -1.28 0 c-0.6 -1.96 -1.8 -3.08 -6.8 -3.08 c-2.8 0 -3.72 0.72 -3.72 2.8 l0 6.52 c0 1.04 0.52 1.24 1.32 1.24 l0.88 0 c3.24 0 6.04 -0.32 7.68 -1.8 c0.4 -0.36 1.28 -0.28 0.92 0.52 l-2.28 5.04 c-0.32 0.72 -0.92 0.64 -1.36 0.04 c-0.92 -1.28 -2.96 -1.8 -5.28 -1.8 l-0.56 0 c-0.8 0 -1.32 0.2 -1.32 1.24 l0 6.72 c0 2.28 0.96 3.12 4.28 3.12 c6.04 0 8.44 -2.76 9.4 -4.28 c0.28 -0.44 1.36 -0.24 1.36 0.44 c0 2.04 -1.72 6.08 -4.24 6.08 c-2.24 -0.12 -4.44 -0.24 -7.8 -0.24 c-3.68 0 -8.04 -0.12 -11.68 0.24 z M271 40.64 c-6.72 0 -15.8 -3.92 -15.8 -14.12 c0 -6.92 4.24 -15.16 15.44 -15.16 c4.64 0 8.64 1.44 8.16 2.84 l-0.52 1.56 c-1.44 4.28 -3 -1.2 -10.12 -1.2 c-5.72 0 -8.52 3.72 -8.52 9.48 c0 9 6.84 12.76 12.32 12.76 c0.72 0 4.36 -0.56 6.44 -1.88 c0.32 -0.2 1.16 0.72 0.92 1.08 c-1.72 2.52 -7.08 4.64 -8.32 4.64 z M298 40.64 c-8.32 0 -14.44 -6.16 -14.44 -14.48 c0 -8.08 5.76 -14.8 14.52 -14.8 c8.36 0 14.44 6.12 14.44 14.44 c0 8.12 -5.72 14.84 -14.52 14.84 z M299.56 37.92 c3.52 0 8.2 -2.32 8.2 -9.88 c0 -8.08 -5.48 -13.96 -11.24 -13.96 c-3.52 0 -8.16 2.32 -8.16 9.84 c0 8.16 5.48 14 11.2 14 z M342.84 40.4 c-0.68 0 -1.04 -0.28 -1.48 -0.76 l-19.04 -19.92 l0 15.2 c0 2.72 1.6 3.16 3.88 3.72 c0.32 0.08 0.16 1.36 -0.24 1.36 l-9.48 0 c-0.32 0 -0.56 -1.24 -0.2 -1.36 c1.68 -0.56 3.28 -0.88 3.28 -3.72 l0 -15.52 c0 -2.84 -0.44 -4.2 -1.48 -5.6 c-0.36 -0.48 -0.72 -0.8 -0.72 -0.92 c0 -0.36 0.24 -0.88 0.8 -0.88 l2.96 0 c0.4 0 0.68 0.04 0.96 0.36 l18.64 19.72 l0 -15.04 c0 -2.84 -1.8 -3.16 -3.88 -3.68 c-0.32 -0.08 -0.16 -1.36 0.24 -1.36 l9.48 0 c0.32 0 0.52 1.28 0.2 1.36 c-1.76 0.52 -3.28 0.84 -3.28 3.68 l0 15.56 c0 2.64 0.08 5.56 0.48 7.04 c0.16 0.6 -0.48 0.76 -1.12 0.76 z M366.52 40.64 c-6.72 0 -15.8 -3.92 -15.8 -14.12 c0 -6.92 4.24 -15.16 15.44 -15.16 c4.64 0 8.64 1.44 8.16 2.84 l-0.52 1.56 c-1.44 4.28 -3 -1.2 -10.12 -1.2 c-5.72 0 -8.52 3.72 -8.52 9.48 c0 9 6.84 12.76 12.32 12.76 c0.72 0 4.36 -0.56 6.44 -1.88 c0.32 -0.2 1.16 0.72 0.92 1.08 c-1.72 2.52 -7.08 4.64 -8.32 4.64 z M378.88 40 c-0.32 0 -0.56 -1.32 -0.24 -1.36 c2.04 -0.28 3.32 -1.08 3.32 -3.6 l0 -18.08 c0 -2.52 -1.28 -3.32 -3.32 -3.6 c-0.32 -0.04 -0.08 -1.36 0.24 -1.36 l10.96 0 c0.32 0 0.56 1.32 0.24 1.36 c-1.72 0.24 -3.32 0.8 -3.32 3.6 l0 18.08 c0 2.8 1.6 3.36 3.32 3.6 c0.32 0.04 0.08 1.36 -0.24 1.36 l-10.96 0 z M393.24 40.08 c-0.4 0.04 -0.56 -1.36 -0.24 -1.44 c2.32 -0.6 4.12 -0.96 4.12 -3.92 l0 -17.76 c0 -2.56 -1.64 -3.24 -3.36 -3.68 c-0.32 -0.08 -0.12 -1.4 0.2 -1.36 c2.92 0.32 7.96 0.24 10.4 0.24 c3.64 0 6.28 -0.16 9.56 -0.24 c0.96 0 0.96 0.64 0.76 1.56 l-0.96 3.8 c-0.12 0.56 -1.12 0.56 -1.28 0 c-0.6 -1.96 -1.8 -3.08 -6.8 -3.08 c-2.8 0 -3.72 0.72 -3.72 2.8 l0 6.52 c0 1.04 0.52 1.24 1.32 1.24 l0.88 0 c3.24 0 6.04 -0.32 7.68 -1.8 c0.4 -0.36 1.28 -0.28 0.92 0.52 l-2.28 5.04 c-0.32 0.72 -0.92 0.64 -1.36 0.04 c-0.92 -1.28 -2.96 -1.8 -5.28 -1.8 l-0.56 0 c-0.8 0 -1.32 0.2 -1.32 1.24 l0 6.72 c0 2.28 0.96 3.12 4.28 3.12 c6.04 0 8.44 -2.76 9.4 -4.28 c0.28 -0.44 1.36 -0.24 1.36 0.44 c0 2.04 -1.72 6.08 -4.24 6.08 c-2.24 -0.12 -4.44 -0.24 -7.8 -0.24 c-3.68 0 -8.04 -0.12 -11.68 0.24 z M449.56 39 c0.32 0 0.24 1.08 0 1.16 c-2.52 0.84 -6 0.72 -8.4 -2.36 l-6.16 -7.92 c-1.72 -2.24 -3.76 -2.56 -6.56 -2.6 l0 7.76 c0 2.8 1.92 3.28 4.48 3.6 c0.28 0.04 0.08 1.36 -0.24 1.36 l-12.12 0 c-0.32 0 -0.56 -1.32 -0.24 -1.36 c2.04 -0.28 3.32 -1.08 3.32 -3.6 l0 -17.84 c0 -2.64 -1.4 -3.4 -3.32 -3.92 c-0.32 -0.08 -0.12 -1.4 0.24 -1.36 c1.56 0.2 3.32 0.24 4.6 0.24 c2.96 0 5.72 -0.24 7.64 -0.24 c6.04 0 10.08 2.48 10.08 7.4 c0 4.64 -3.76 6.92 -7.12 7.12 l0 0.2 c1.6 0 2.76 0.68 4.52 2.88 l5.96 7.48 c1.24 1.56 2.44 2 3.32 2 z M429.6 25.44 c5.96 0 8.24 -1.04 8.24 -5.04 c0 -4.28 -2.72 -6.4 -6.28 -6.4 c-2.36 0 -3.12 0.96 -3.12 3.2 l0 8.24 l1.16 0 z M469.8 40.64 c-9.56 0 -17.24 -4.72 -17.24 -14.12 c0 -7.64 5.24 -15.16 16.36 -15.16 c4.88 0 8.68 1.44 8.2 2.8 l-0.6 1.68 c-1.4 3.96 -3 -1.24 -10.48 -1.24 c-6.2 0 -9.04 3.56 -9.04 9.6 c0 9 6.12 13.88 11.64 13.88 c2.88 0 3.96 -1.4 3.96 -3.68 l0 -0.72 c0 -3.04 -1.36 -4.04 -4.56 -4.52 c-0.52 -0.08 -0.04 -1.52 0.84 -1.52 l10.28 0 c1.12 0 0.72 1.4 0.28 1.52 c-1.48 0.4 -2.48 1.24 -2.48 3.8 l0 1.4 c0 0.96 0.08 1.8 0.84 3.04 c-2.4 1.32 -7.04 3.24 -8 3.24 z M483.28 40.08 c-0.4 0.04 -0.56 -1.36 -0.24 -1.44 c2.32 -0.6 4.12 -0.96 4.12 -3.92 l0 -17.76 c0 -2.56 -1.64 -3.24 -3.36 -3.68 c-0.32 -0.08 -0.12 -1.4 0.2 -1.36 c2.92 0.32 7.96 0.24 10.4 0.24 c3.64 0 6.28 -0.16 9.56 -0.24 c0.96 0 0.96 0.64 0.76 1.56 l-0.96 3.8 c-0.12 0.56 -1.12 0.56 -1.28 0 c-0.6 -1.96 -1.8 -3.08 -6.8 -3.08 c-2.8 0 -3.72 0.72 -3.72 2.8 l0 6.52 c0 1.04 0.52 1.24 1.32 1.24 l0.88 0 c3.24 0 6.04 -0.32 7.68 -1.8 c0.4 -0.36 1.28 -0.28 0.92 0.52 l-2.28 5.04 c-0.32 0.72 -0.92 0.64 -1.36 0.04 c-0.92 -1.28 -2.96 -1.8 -5.28 -1.8 l-0.56 0 c-0.8 0 -1.32 0.2 -1.32 1.24 l0 6.72 c0 2.28 0.96 3.12 4.28 3.12 c6.04 0 8.44 -2.76 9.4 -4.28 c0.28 -0.44 1.36 -0.24 1.36 0.44 c0 2.04 -1.72 6.08 -4.24 6.08 c-2.24 -0.12 -4.44 -0.24 -7.8 -0.24 c-3.68 0 -8.04 -0.12 -11.68 0.24 z"></path></g><g id="SvgjsG1010" featureKey="sloganFeature-0" transform="matrix(0.3844721170860513,0,0,0.3844721170860513,50.624539131488746,154.7622521310226)" fill="url(#SvgjsLinearGradient1027)"><path d="M8.066406 20.195313 c-4.0625 0 -7.089844 -2.773437 -7.089844 -7.197266 c0 -4.414062 3.027344 -7.177734 7.089844 -7.177734 c2.998047 0 5.439453 1.523438 6.464844 4.072266 l-2.353516 0.888672 c-0.693359 -1.660156 -2.246094 -2.617187 -4.111328 -2.617187 c-2.568359 0 -4.570312 1.796875 -4.570312 4.833984 c0 3.056641 2.001953 4.84375 4.570313 4.84375 c1.865234 0 3.417969 -0.957031 4.111328 -2.617187 l2.353516 0.888672 c-1.025391 2.548828 -3.466797 4.082031 -6.464844 4.082031 z M26.102051 20.195313 c-4.0625 0 -7.089844 -2.783203 -7.089844 -7.197266 s3.027344 -7.177734 7.089844 -7.177734 c4.042969 0 7.080078 2.763672 7.080078 7.177734 s-3.037109 7.197266 -7.080078 7.197266 z M26.102051 17.851563 c2.558594 0 4.560547 -1.787109 4.560547 -4.853516 c0 -3.037109 -2.001953 -4.833984 -4.560547 -4.833984 c-2.568359 0 -4.570312 1.796875 -4.570312 4.833984 c0 3.066406 2.001953 4.853516 4.570313 4.853516 z M48.43457 6.005859 l2.529297 0 l0 13.994141 l-2.871094 0 l-6.640625 -10.458984 l0 10.458984 l-2.519531 0 l0 -13.994141 l2.841797 0 l6.660156 10.380859 l0 -10.380859 z M67.17334 6.005859 l2.529297 0 l0 13.994141 l-2.871094 0 l-6.640625 -10.458984 l0 10.458984 l-2.519531 0 l0 -13.994141 l2.841797 0 l6.660156 10.380859 l0 -10.380859 z M84.320313 8.251953 l-5.341797 0 l0 3.642578 l4.726563 0 l0 2.226563 l-4.726562 0 l0 3.623047 l5.341797 0 l0 2.255859 l-7.910156 0 l0 -13.994141 l7.910156 0 l0 2.246094 z M96.418457 20.195313 c-4.0625 0 -7.089844 -2.773437 -7.089844 -7.197266 c0 -4.414062 3.027344 -7.177734 7.089844 -7.177734 c2.998047 0 5.439453 1.523438 6.464844 4.072266 l-2.353516 0.888672 c-0.693359 -1.660156 -2.246094 -2.617187 -4.111328 -2.617187 c-2.568359 0 -4.570312 1.796875 -4.570312 4.833984 c0 3.056641 2.001953 4.84375 4.570313 4.84375 c1.865234 0 3.417969 -0.957031 4.111328 -2.617187 l2.353516 0.888672 c-1.025391 2.548828 -3.466797 4.082031 -6.464844 4.082031 z M116.182617 6.005859 l0 2.246094 l-3.417969 0 l0 11.748047 l-2.509766 0 l0 -11.748047 l-3.427734 0 l0 -2.246094 l9.355469 0 z M121.395996 20 l0 -13.994141 l2.539063 0 l0 13.994141 l-2.539062 0 z M140.144531 6.005859 l2.529297 0 l0 13.994141 l-2.871094 0 l-6.640625 -10.458984 l0 10.458984 l-2.519531 0 l0 -13.994141 l2.841797 0 l6.660156 10.380859 l0 -10.380859 z M155.396973 20.195313 c-3.984375 0 -6.972656 -2.744141 -6.972656 -7.158203 c0 -4.453125 3.027344 -7.216797 7.089844 -7.216797 c2.646484 0 4.873047 1.162109 6.09375 3.28125 l-2.236328 1.191406 c-0.791016 -1.523437 -2.207031 -2.236328 -3.857422 -2.236328 c-2.578125 0 -4.550781 1.767578 -4.550781 4.921875 c0 3.085938 1.875 4.980469 4.638672 4.980469 c2.021484 0 3.759766 -1.064453 4.121094 -3.339844 l-4.121094 0 l0 -2.070312 l6.542969 0 l0 7.451172 l-2.021484 0 l0 -2.167969 c-0.908203 1.484375 -2.5 2.363281 -4.726562 2.363281 z M185.091308 6.005859 l2.539063 0 l0 13.994141 l-2.539062 0 l0 -5.898437 l-6.289062 0 l0 5.898438 l-2.548828 0 l0 -13.994141 l2.548828 0 l0 5.869141 l6.289063 0 l0 -5.869141 z M200.470703 20.195313 c-4.0625 0 -7.089844 -2.783203 -7.089844 -7.197266 s3.027344 -7.177734 7.089844 -7.177734 c4.042969 0 7.080078 2.763672 7.080078 7.177734 s-3.037109 7.197266 -7.080078 7.197266 z M200.470703 17.851563 c2.558594 0 4.560547 -1.787109 4.560547 -4.853516 c0 -3.037109 -2.001953 -4.833984 -4.560547 -4.833984 c-2.568359 0 -4.570312 1.796875 -4.570312 4.833984 c0 3.066406 2.001953 4.853516 4.570313 4.853516 z M220.752442 20 l-3.623047 -6.210937 l-1.279297 0 l0 6.210938 l-2.548828 0 l0 -13.994141 l4.931641 0 c3.076172 0 4.404297 1.835938 4.404297 4.111328 c0 1.835938 -1.025391 3.085938 -3.017578 3.505859 l4.121094 6.376953 l-2.988281 0 z M215.850098 8.144531 l0 3.613281 l2.001953 0 c1.660156 0 2.363281 -0.722656 2.363281 -1.796875 s-0.703125 -1.816406 -2.363281 -1.816406 l-2.001953 0 z M233.543945 20.195313 c-2.96875 0 -5.224609 -1.425781 -5.664062 -3.945312 l2.607422 -0.605469 c0.234375 1.591797 1.494141 2.451172 3.154297 2.451172 c1.308594 0 2.441406 -0.556641 2.431641 -1.933594 c-0.019531 -1.455078 -1.669922 -1.894531 -3.457031 -2.412109 c-2.099609 -0.625 -4.277344 -1.347656 -4.277344 -3.925781 c0 -2.597656 2.128906 -4.003906 4.84375 -4.003906 c2.451172 0 4.824219 1.015625 5.371094 3.583984 l-2.441406 0.605469 c-0.292969 -1.445312 -1.376953 -2.099609 -2.792969 -2.099609 c-1.259766 0 -2.421875 0.537109 -2.421875 1.865234 c0 1.220703 1.455078 1.611328 3.115234 2.080078 c2.148438 0.625 4.677734 1.396484 4.677734 4.189453 c0 2.919922 -2.451172 4.150391 -5.146484 4.150391 z M252.331543 8.251953 l-5.341797 0 l0 3.642578 l4.726563 0 l0 2.226563 l-4.726562 0 l0 3.623047 l5.341797 0 l0 2.255859 l-7.910156 0 l0 -13.994141 l7.910156 0 l0 2.246094 z M272.465332 20.195313 c-4.0625 0 -7.089844 -2.783203 -7.089844 -7.197266 s3.027344 -7.177734 7.089844 -7.177734 c4.042969 0 7.080078 2.763672 7.080078 7.177734 s-3.037109 7.197266 -7.080078 7.197266 z M272.465332 17.851563 c2.558594 0 4.560547 -1.787109 4.560547 -4.853516 c0 -3.037109 -2.001953 -4.833984 -4.560547 -4.833984 c-2.568359 0 -4.570312 1.796875 -4.570312 4.833984 c0 3.066406 2.001953 4.853516 4.570313 4.853516 z M287.649414 20 l-3.769531 -13.994141 l2.636719 0 l2.919922 10.908203 l3.242188 -10.908203 l2.167969 0 l3.232422 10.908203 l2.949219 -10.908203 l2.626953 0 l-3.769531 13.994141 l-3.203125 0 l-2.919922 -9.335937 l-2.919922 9.335938 l-3.193359 0 z M318.448731 6.005859 l2.529297 0 l0 13.994141 l-2.871094 0 l-6.640625 -10.458984 l0 10.458984 l-2.519531 0 l0 -13.994141 l2.841797 0 l6.660156 10.380859 l0 -10.380859 z M335.595703 8.251953 l-5.341797 0 l0 3.642578 l4.726563 0 l0 2.226563 l-4.726562 0 l0 3.623047 l5.341797 0 l0 2.255859 l-7.910156 0 l0 -13.994141 l7.910156 0 l0 2.246094 z M349.012207 20 l-3.623047 -6.210937 l-1.279297 0 l0 6.210938 l-2.548828 0 l0 -13.994141 l4.931641 0 c3.076172 0 4.404297 1.835938 4.404297 4.111328 c0 1.835938 -1.025391 3.085938 -3.017578 3.505859 l4.121094 6.376953 l-2.988281 0 z M344.109863 8.144531 l0 3.613281 l2.001953 0 c1.660156 0 2.363281 -0.722656 2.363281 -1.796875 s-0.703125 -1.816406 -2.363281 -1.816406 l-2.001953 0 z M361.803711 20.195313 c-2.96875 0 -5.224609 -1.425781 -5.664062 -3.945312 l2.607422 -0.605469 c0.234375 1.591797 1.494141 2.451172 3.154297 2.451172 c1.308594 0 2.441406 -0.556641 2.431641 -1.933594 c-0.019531 -1.455078 -1.669922 -1.894531 -3.457031 -2.412109 c-2.099609 -0.625 -4.277344 -1.347656 -4.277344 -3.925781 c0 -2.597656 2.128906 -4.003906 4.84375 -4.003906 c2.451172 0 4.824219 1.015625 5.371094 3.583984 l-2.441406 0.605469 c-0.292969 -1.445312 -1.376953 -2.099609 -2.792969 -2.099609 c-1.259766 0 -2.421875 0.537109 -2.421875 1.865234 c0 1.220703 1.455078 1.611328 3.115234 2.080078 c2.148438 0.625 4.677734 1.396484 4.677734 4.189453 c0 2.919922 -2.451172 4.150391 -5.146484 4.150391 z M388.578125 6.005859 l0 2.246094 l-3.417969 0 l0 11.748047 l-2.509766 0 l0 -11.748047 l-3.427734 0 l0 -2.246094 l9.355469 0 z M399.924316 20.195313 c-4.0625 0 -7.089844 -2.783203 -7.089844 -7.197266 s3.027344 -7.177734 7.089844 -7.177734 c4.042969 0 7.080078 2.763672 7.080078 7.177734 s-3.037109 7.197266 -7.080078 7.197266 z M399.924316 17.851563 c2.558594 0 4.560547 -1.787109 4.560547 -4.853516 c0 -3.037109 -2.001953 -4.833984 -4.560547 -4.833984 c-2.568359 0 -4.570312 1.796875 -4.570312 4.833984 c0 3.066406 2.001953 4.853516 4.570313 4.853516 z M428.651856 6.005859 l0 2.246094 l-3.417969 0 l0 11.748047 l-2.509766 0 l0 -11.748047 l-3.427734 0 l0 -2.246094 l9.355469 0 z M441.316407 20 l-3.623047 -6.210937 l-1.279297 0 l0 6.210938 l-2.548828 0 l0 -13.994141 l4.931641 0 c3.076172 0 4.404297 1.835938 4.404297 4.111328 c0 1.835938 -1.025391 3.085938 -3.017578 3.505859 l4.121094 6.376953 l-2.988281 0 z M436.414063 8.144531 l0 3.613281 l2.001953 0 c1.660156 0 2.363281 -0.722656 2.363281 -1.796875 s-0.703125 -1.816406 -2.363281 -1.816406 l-2.001953 0 z M454.625489 20.195313 c-3.007812 0 -5.351562 -1.630859 -5.351562 -5.009766 l0 -9.179687 l2.539063 0 l0 8.837891 c0 2.1875 1.230469 3.085938 2.8125 3.085938 c1.572266 0 2.832031 -0.908203 2.832031 -3.085937 l0 -8.837891 l2.529297 0 l0 9.179688 c0 3.378906 -2.34375 5.009766 -5.361328 5.009766 z M470.952148 20.195313 c-2.96875 0 -5.224609 -1.425781 -5.664062 -3.945312 l2.607422 -0.605469 c0.234375 1.591797 1.494141 2.451172 3.154297 2.451172 c1.308594 0 2.441406 -0.556641 2.431641 -1.933594 c-0.019531 -1.455078 -1.669922 -1.894531 -3.457031 -2.412109 c-2.099609 -0.625 -4.277344 -1.347656 -4.277344 -3.925781 c0 -2.597656 2.128906 -4.003906 4.84375 -4.003906 c2.451172 0 4.824219 1.015625 5.371094 3.583984 l-2.441406 0.605469 c-0.292969 -1.445312 -1.376953 -2.099609 -2.792969 -2.099609 c-1.259766 0 -2.421875 0.537109 -2.421875 1.865234 c0 1.220703 1.455078 1.611328 3.115234 2.080078 c2.148438 0.625 4.677734 1.396484 4.677734 4.189453 c0 2.919922 -2.451172 4.150391 -5.146484 4.150391 z M489.690918 6.005859 l0 2.246094 l-3.417969 0 l0 11.748047 l-2.509766 0 l0 -11.748047 l-3.427734 0 l0 -2.246094 l9.355469 0 z M502.814453 8.251953 l-5.341797 0 l0 3.642578 l4.726563 0 l0 2.226563 l-4.726562 0 l0 3.623047 l5.341797 0 l0 2.255859 l-7.910156 0 l0 -13.994141 l7.910156 0 l0 2.246094 z M508.779785 20 l0 -13.994141 l4.882813 0 c4.404297 0 6.601563 2.841797 6.601563 6.992188 c0 4.160156 -2.197266 7.001953 -6.601562 7.001953 l-4.882812 0 z M511.318847 17.744141 l2.226563 0 c2.773438 0 4.0625 -1.777344 4.0625 -4.746094 c0 -2.958984 -1.289062 -4.746094 -4.0625 -4.746094 l-2.226562 0 l0 9.492188 z M538.640136 20.195313 c-2.96875 0 -5.224609 -1.425781 -5.664062 -3.945312 l2.607422 -0.605469 c0.234375 1.591797 1.494141 2.451172 3.154297 2.451172 c1.308594 0 2.441406 -0.556641 2.431641 -1.933594 c-0.019531 -1.455078 -1.669922 -1.894531 -3.457031 -2.412109 c-2.099609 -0.625 -4.277344 -1.347656 -4.277344 -3.925781 c0 -2.597656 2.128906 -4.003906 4.84375 -4.003906 c2.451172 0 4.824219 1.015625 5.371094 3.583984 l-2.441406 0.605469 c-0.292969 -1.445312 -1.376953 -2.099609 -2.792969 -2.099609 c-1.259766 0 -2.421875 0.537109 -2.421875 1.865234 c0 1.220703 1.455078 1.611328 3.115234 2.080078 c2.148438 0.625 4.677734 1.396484 4.677734 4.189453 c0 2.919922 -2.451172 4.150391 -5.146484 4.150391 z M557.427734 8.251953 l-5.341797 0 l0 3.642578 l4.726563 0 l0 2.226563 l-4.726562 0 l0 3.623047 l5.341797 0 l0 2.255859 l-7.910156 0 l0 -13.994141 l7.910156 0 l0 2.246094 z M570.844239 20 l-3.623047 -6.210937 l-1.279297 0 l0 6.210938 l-2.548828 0 l0 -13.994141 l4.931641 0 c3.076172 0 4.404297 1.835938 4.404297 4.111328 c0 1.835938 -1.025391 3.085938 -3.017578 3.505859 l4.121094 6.376953 l-2.988281 0 z M565.941895 8.144531 l0 3.613281 l2.001953 0 c1.660156 0 2.363281 -0.722656 2.363281 -1.796875 s-0.703125 -1.816406 -2.363281 -1.816406 l-2.001953 0 z M587.903321 6.005859 l2.685547 0 l-5.15625 13.994141 l-2.744141 0 l-5.136719 -13.994141 l2.685547 0 l3.837891 10.986328 z M595.753418 20 l0 -13.994141 l2.539063 0 l0 13.994141 l-2.539062 0 z M611.132812 20.195313 c-4.0625 0 -7.089844 -2.773437 -7.089844 -7.197266 c0 -4.414062 3.027344 -7.177734 7.089844 -7.177734 c2.998047 0 5.439453 1.523438 6.464844 4.072266 l-2.353516 0.888672 c-0.693359 -1.660156 -2.246094 -2.617187 -4.111328 -2.617187 c-2.568359 0 -4.570312 1.796875 -4.570312 4.833984 c0 3.056641 2.001953 4.84375 4.570313 4.84375 c1.865234 0 3.417969 -0.957031 4.111328 -2.617187 l2.353516 0.888672 c-1.025391 2.548828 -3.466797 4.082031 -6.464844 4.082031 z M630.945801 8.251953 l-5.341797 0 l0 3.642578 l4.726563 0 l0 2.226563 l-4.726562 0 l0 3.623047 l5.341797 0 l0 2.255859 l-7.910156 0 l0 -13.994141 l7.910156 0 l0 2.246094 z M641.452148 20.195313 c-2.96875 0 -5.224609 -1.425781 -5.664062 -3.945312 l2.607422 -0.605469 c0.234375 1.591797 1.494141 2.451172 3.154297 2.451172 c1.308594 0 2.441406 -0.556641 2.431641 -1.933594 c-0.019531 -1.455078 -1.669922 -1.894531 -3.457031 -2.412109 c-2.099609 -0.625 -4.277344 -1.347656 -4.277344 -3.925781 c0 -2.597656 2.128906 -4.003906 4.84375 -4.003906 c2.451172 0 4.824219 1.015625 5.371094 3.583984 l-2.441406 0.605469 c-0.292969 -1.445312 -1.376953 -2.099609 -2.792969 -2.099609 c-1.259766 0 -2.421875 0.537109 -2.421875 1.865234 c0 1.220703 1.455078 1.611328 3.115234 2.080078 c2.148438 0.625 4.677734 1.396484 4.677734 4.189453 c0 2.919922 -2.451172 4.150391 -5.146484 4.150391 z"></path></g>
			</g>
		</svg>
	